#N canvas -1685 1536 1537 773 12;
#X obj 679 607 netsend -u -b;
#X obj 670 461 list prepend send;
#X obj 672 485 list trim;
#X obj 622 461 bng 20 250 50 0 empty empty empty 17 7 0 10 -4034 -1
-1;
#X obj 646 460 bng 20 250 50 0 empty empty empty 17 7 0 10 -258113
-1 -1;
#X msg 692 579 disconnect;
#X obj 639 514 \$1;
#X obj 671 341 oscformat /wave1;
#X obj 669 297 f 1;
#X obj 738 237 bng 15 250 50 0 empty empty empty 17 7 0 10 -262144
-1 -1;
#X obj 809 365 oscformat /wave1/cX;
#X obj 743 96 tgl 15 0 empty empty empty 17 7 0 10 -262144 -1 -1 1
1;
#X obj 813 306 - 300;
#X obj 807 335 / 100;
#X obj 989 309 - 300;
#X obj 983 338 / 100;
#X obj 985 368 oscformat /wave1/cY;
#X obj 225 103 bng 15 250 50 0 empty empty empty 17 7 0 10 -262144
-1 -1;
#X obj 282 252 cyclone/drunk 600 100;
#X obj 276 289 - 300;
#X obj 270 318 / 100;
#X obj 452 292 - 300;
#X obj 446 321 / 100;
#X obj 447 350 oscformat /wave0/cY;
#X obj 272 348 oscformat /wave0/cX;
#X obj 152 314 oscformat /wave0;
#X obj 798 254 cyclone/drunk 600 10;
#X obj 999 251 cyclone/drunk 600 10;
#X obj 445 252 cyclone/drunk 600 10;
#X floatatom 913 173 5 0 600 0 - - -;
#X floatatom 980 171 5 0 0 0 - - -;
#X obj 824 176 tgl 15 0 empty empty empty 17 7 0 10 -262144 -1 -1 1
1;
#X obj 792 198 spigot;
#X obj 350 179 tgl 15 0 empty empty empty 17 7 0 10 -262144 -1 -1 1
1;
#X obj 290 220 spigot;
#X floatatom 405 148 5 0 600 0 - - -;
#X floatatom 487 182 5 0 600 0 - - -;
#X obj 736 200 spigot;
#X obj 769 177 tgl 15 0 empty empty empty 17 7 0 10 -262144 -1 -1 1
1;
#X obj 752 145 metro 2000;
#X msg 638 538 connect localhost 9001;
#X floatatom 839 113 5 200 2000 0 - - -;
#X obj 1197 177 bng 25 250 50 0 empty empty bigwave 17 7 0 10 -4034
-1 -1;
#X obj 1192 371 oscformat /bigwave;
#X obj 1198 340 f 1;
#X obj 179 229 f 1;
#X connect 1 0 2 0;
#X connect 2 0 0 0;
#X connect 3 0 6 0;
#X connect 4 0 5 0;
#X connect 5 0 0 0;
#X connect 6 0 40 0;
#X connect 7 0 1 0;
#X connect 8 0 7 0;
#X connect 9 0 8 0;
#X connect 10 0 1 0;
#X connect 11 0 39 0;
#X connect 12 0 13 0;
#X connect 13 0 10 0;
#X connect 14 0 15 0;
#X connect 15 0 16 0;
#X connect 16 0 1 0;
#X connect 17 0 45 0;
#X connect 18 0 19 0;
#X connect 19 0 20 0;
#X connect 20 0 24 0;
#X connect 21 0 22 0;
#X connect 22 0 23 0;
#X connect 23 0 1 0;
#X connect 24 0 1 0;
#X connect 25 0 1 0;
#X connect 26 0 12 0;
#X connect 27 0 14 0;
#X connect 28 0 21 0;
#X connect 29 0 12 0;
#X connect 30 0 14 0;
#X connect 31 0 32 1;
#X connect 32 0 26 0;
#X connect 32 0 27 0;
#X connect 33 0 34 1;
#X connect 34 0 18 0;
#X connect 34 0 28 0;
#X connect 35 0 19 0;
#X connect 36 0 21 0;
#X connect 37 0 9 0;
#X connect 38 0 37 1;
#X connect 39 0 17 0;
#X connect 39 0 32 0;
#X connect 39 0 34 0;
#X connect 39 0 37 0;
#X connect 40 0 0 0;
#X connect 41 0 39 1;
#X connect 42 0 44 0;
#X connect 43 0 1 0;
#X connect 44 0 43 0;
#X connect 45 0 25 0;
