#N canvas 123 346 939 794 12;
#X obj 463 148 netreceive -u -b 9002;
#X obj 463 175 oscparse;
#X obj 462 203 list trim;
#X obj 523 257 route wave1;
#X obj 423 257 route wave0;
#X obj 293 306 route cX;
#X floatatom 295 358 5 0 0 0 - - -;
#X floatatom 356 358 5 0 0 0 - - -;
#X obj 356 305 route cY;
#X obj 438 343 bng 15 250 50 0 empty empty empty 17 7 0 10 -262144
-1 -1;
#X obj 419 304 route 1;
#X obj 526 308 route cX;
#X floatatom 528 360 5 0 0 0 - - -;
#X floatatom 589 360 5 0 0 0 - - -;
#X obj 589 307 route cY;
#X obj 653 363 bng 15 250 50 0 empty empty empty 17 7 0 10 -262144
-1 -1;
#X obj 652 306 route 1;
#X obj 232 451 random 4;
#X floatatom 253 477 5 0 0 0 - - -;
#X obj 262 505 select 0 1 2 3;
#X obj 258 748 noteout 1;
#X obj 260 714 makenote 127 500;
#X msg 252 553 60, f 4;
#X msg 310 558 65, f 4;
#X msg 363 561 67, f 4;
#X msg 410 560 70, f 4;
#X obj 463 556 random 600;
#X obj 460 589 + 150;
#X floatatom 494 628 5 0 0 0 - - -;
#X obj 567 446 random 4;
#X floatatom 588 472 5 0 0 0 - - -;
#X obj 597 500 select 0 1 2 3;
#X obj 593 743 noteout 1;
#X obj 595 709 makenote 127 500;
#X obj 798 551 random 600;
#X obj 795 584 + 150;
#X floatatom 829 623 5 0 0 0 - - -;
#X msg 586 547 84, f 4;
#X msg 645 553 89, f 4;
#X msg 698 556 91, f 4;
#X msg 745 555 94, f 4;
#X connect 0 0 1 0;
#X connect 1 0 2 0;
#X connect 2 0 3 0;
#X connect 2 0 4 0;
#X connect 3 0 11 0;
#X connect 3 0 14 0;
#X connect 3 0 16 0;
#X connect 4 0 5 0;
#X connect 4 0 8 0;
#X connect 4 0 10 0;
#X connect 5 0 6 0;
#X connect 8 0 7 0;
#X connect 9 0 17 0;
#X connect 9 0 26 0;
#X connect 10 0 9 0;
#X connect 11 0 12 0;
#X connect 14 0 13 0;
#X connect 15 0 29 0;
#X connect 16 0 15 0;
#X connect 17 0 18 0;
#X connect 18 0 19 0;
#X connect 19 0 22 0;
#X connect 19 1 23 0;
#X connect 19 2 24 0;
#X connect 19 3 25 0;
#X connect 21 0 20 0;
#X connect 21 1 20 1;
#X connect 22 0 21 0;
#X connect 23 0 21 0;
#X connect 24 0 21 0;
#X connect 25 0 21 0;
#X connect 26 0 27 0;
#X connect 27 0 21 2;
#X connect 27 0 28 0;
#X connect 29 0 30 0;
#X connect 30 0 31 0;
#X connect 31 0 37 0;
#X connect 31 1 38 0;
#X connect 31 2 39 0;
#X connect 31 3 40 0;
#X connect 33 0 32 0;
#X connect 33 1 32 1;
#X connect 34 0 35 0;
#X connect 35 0 33 2;
#X connect 35 0 36 0;
#X connect 37 0 33 0;
#X connect 38 0 33 0;
#X connect 39 0 33 0;
#X connect 40 0 33 0;
